<?xml version="1.0" encoding="utf-8"?>
<!-- Generator: Adobe Illustrator 18.1.1, SVG Export Plug-In . SVG Version: 6.00 Build 0)  -->
<svg version="1.1" id="Ebene_1" xmlns="http://www.w3.org/2000/svg" xmlns:xlink="http://www.w3.org/1999/xlink" x="0px" y="0px"
	 viewBox="0 256 600 84" enable-background="new 0 256 600 84" xml:space="preserve">
<g enable-background="new    ">
	<path fill="#E25041" d="M20.8,291.1h-14v-3.3l14-0.4l0.6-13.4H25v13.4h24.6v3.7H25v25.6c0,8.9,2.6,14.3,12.8,14.3
		c4.9,0,8.8-0.9,12.4-2.4l1.2,3.3c-4.1,1.7-9.7,2.9-14.1,2.9c-12.6,0-16.5-7.4-16.5-18.5V291.1z"/>
	<path fill="#E25041" d="M72.5,287.4h3.7l0.5,11.4h0.2c5-7.3,12.5-12.5,21.7-12.5c3.1,0,6.3,0.4,9.2,1.9l-1.2,3.8
		c-3.4-1.2-5.1-1.6-8.8-1.6c-7.7,0-14.7,3.9-21.1,14.4v28.9h-4.3V287.4z"/>
	<path fill="#E25041" d="M123.7,287.4h27.4v46.2h-4.2v-42.5h-23.2V287.4z M143.5,271.7c0-2.8,2-4.6,4.5-4.6c2.6,0,4.5,1.8,4.5,4.6
		s-1.9,4.6-4.5,4.6C145.5,276.3,143.5,274.4,143.5,271.7z"/>
	<path fill="#E25041" d="M202.5,286.3c12.6,0,20.7,8.1,20.7,21.4c0,1.2,0,2.3-0.2,3.5h-39.2c0.2,11.6,8.3,20,20.3,20
		c6.2,0,11.1-2,15.4-5l1.7,3.3c-4.2,2.7-9.4,5.4-17.5,5.4c-13.3,0-24.3-9-24.3-24.1S190.8,286.3,202.5,286.3z M219.1,307.6
		c0-11.6-6.5-17.7-16.5-17.7c-9.1,0-17.4,6.7-18.8,17.7H219.1z"/>
	<path fill="#E25041" d="M239.8,264.4h4.3v20l-0.3,9.9c5-4.8,11.5-8.1,17.5-8.1c13.1,0,19.6,9.2,19.6,23.6
		c0,15.7-10.1,24.9-21.5,24.9c-4.7,0-10.9-2.5-15.5-6.3h-0.2l-0.5,5.2h-3.6V264.4z M259.3,331c9.9,0,17.1-8.7,17.1-21.2
		c0-11.4-4.4-19.8-15.8-19.8c-4.8,0-10.8,2.7-16.5,8.5v25.7C249.5,329.1,255.4,331,259.3,331z"/>
</g>
<text transform="matrix(1 0 0 1 287.2929 333.6114)" fill="#E25041" font-family="'SauceCodePowerline-Light'" font-size="117.3294"> </text>
<g enable-background="new    ">
	<path fill="#E25041" d="M359.4,287.4h4.5l7.4,29.9c1.1,4.2,2,8.2,2.8,12.3h0.4c1.1-4.1,2-8.1,3.1-12.3l7.4-29.2h4.7l7.4,29.2
		c1.1,4.2,2,8.2,3.1,12.3h0.4c1-4.1,1.9-8.1,2.9-12.3l7.3-29.9h4.2l-11.7,46.2h-5.5l-7.3-28.3c-1.1-4.4-1.9-8.7-3.1-13.2h-0.4
		c-1,4.2-1.8,8.7-3.1,13.4l-7.1,28.1h-5.5L359.4,287.4z"/>
	<path fill="#E25041" d="M444.9,286.3c12.1,0,22.4,8.9,22.4,24.3c0,15.3-10.3,24.1-22.4,24.1s-22.4-8.9-22.4-24.1
		C422.5,295.1,432.8,286.3,444.9,286.3z M444.9,331c10.4,0,17.9-8.3,17.9-20.4c0-12.2-7.5-20.6-17.9-20.6
		c-10.4,0-17.9,8.4-17.9,20.6C427,322.7,434.5,331,444.9,331z"/>
	<path fill="#E25041" d="M489.3,287.4h3.7l0.5,11.4h0.2c5-7.3,12.5-12.5,21.7-12.5c3.1,0,6.3,0.4,9.2,1.9l-1.2,3.8
		c-3.4-1.2-5.1-1.6-8.8-1.6c-7.7,0-14.7,3.9-21.1,14.4v28.9h-4.3V287.4z"/>
	<path fill="#E25041" d="M543.1,264.4h4.3v50.8h0.4l29.6-27.8h5.3l-19,17.9l22,28.3h-4.9l-20.1-25.7l-13.4,12.6v13.1h-4.3V264.4z"/>
</g>
<path fill="#E25041" d="M322.5,309.9c6.4,0,11.5,5.1,11.5,11.5c0,6.4-5.1,11.5-11.5,11.5c-6.4,0-11.5-5.1-11.5-11.5
	C310.9,315,316,309.9,322.5,309.9z M323.2,309.9c-0.8,1.7-1.4,4.1-1.7,7.3c0.3-0.1,0.7-0.1,0.9-0.1c0.4,0,0.8,0.1,1.2,0.1
	c0.3-3.3,1-5.5,1.8-7.1C324.8,310,324,309.9,323.2,309.9z M319.4,310.1c-0.8,0.3-1.4,0.4-2.1,0.8c0.1,1.8,0.8,4.3,2.2,7.2
	c0.5-0.5,1.2-0.9,2-1C320,314.2,319.6,311.8,319.4,310.1z M329,311.7c-1.6,1-3.4,2.7-5.2,5.5c0.7,0.3,1.3,0.7,1.8,1.2
	c1.8-2.7,3.7-4.3,5.1-5.2C330.2,312.6,329.5,312.2,329,311.7z M314.3,313.2c-0.5,0.5-0.9,1-1.4,1.7c1,1.6,2.7,3.4,5.5,5.2
	c0.3-0.7,0.7-1.3,1.2-1.8C316.7,316.3,315.1,314.6,314.3,313.2z M332.9,316.3c-1.8,0.1-4.3,0.8-7.2,2.2c0.5,0.5,0.9,1.2,1,2
	c3-1.4,5.2-1.8,6.9-2C333.4,317.6,333.2,317,332.9,316.3z M311.3,318.4c-0.1,0.8-0.3,1.4-0.4,2.2c1.7,0.8,4.1,1.4,7.3,1.7
	c-0.1-0.3-0.1-0.7-0.1-0.9c0-0.4,0.1-0.8,0.1-1.2C315,319.8,312.8,319.2,311.3,318.4z M322.5,319.2c-1.3,0-2.2,1-2.2,2.2
	c0,1.2,1,2.2,2.2,2.2c1.3,0,2.2-1,2.2-2.2C324.7,320.2,323.8,319.2,322.5,319.2z M326.6,320.4c0.1,0.3,0.1,0.7,0.1,0.9
	c0,0.4-0.1,0.8-0.1,1.2c3.3,0.3,5.5,1,7.1,1.8c0.1-0.8,0.3-1.4,0.4-2.2C332.3,321.4,329.9,320.6,326.6,320.4z M318.3,322.5
	c-3,1.4-5.2,1.8-6.9,2c0.3,0.8,0.4,1.4,0.8,2.1c1.8-0.1,4.3-0.8,7.2-2.2C318.8,323.8,318.4,323.1,318.3,322.5z M326.6,322.6
	c-0.3,0.7-0.7,1.3-1.2,1.8c2.7,1.8,4.3,3.7,5.2,5.1c0.5-0.5,0.9-1,1.4-1.7C331,326.2,329.3,324.5,326.6,322.6z M319.3,324.4
	c-1.8,2.7-3.7,4.3-5.1,5.2c0.5,0.5,1,0.9,1.7,1.4c1.6-1,3.4-2.7,5.2-5.5C320.5,325.3,319.8,324.9,319.3,324.4z M325.5,324.5
	c-0.5,0.5-1.2,0.9-2,1c1.4,3,1.8,5.2,2,6.9c0.8-0.3,1.4-0.4,2.1-0.8C327.4,329.9,326.8,327.6,325.5,324.5z M321.3,325.6
	c-0.3,3.3-1,5.5-1.8,7.1c0.8,0.1,1.4,0.3,2.2,0.4c0.8-1.7,1.4-4.1,1.7-7.3c-0.3,0.1-0.7,0.1-0.9,0.1
	C322.1,325.7,321.7,325.6,321.3,325.6z M322.5,307.8c-7.5,0-13.6,6.2-13.6,13.6c0,7.5,6.2,13.6,13.6,13.6c7.5,0,13.6-6.2,13.6-13.6
	C336.1,313.9,329.9,307.8,322.5,307.8z"/>
</svg>
